<svg width="84" height="417" viewBox="0 0 84 417" fill="none" xmlns="http://www.w3.org/2000/svg">
<path d="M28.2283 154.5C21.0283 94.1 62.2283 37 83.7283 16V397.5C10.9283 376.3 1.03759 324.784 20.7283 295.5C51.9283 249.1 35.4283 214.9 28.2283 154.5Z" fill="#36D6AD"/>
<path d="M83.7283 1C54.5617 29.5 -0.571671 100.1 12.2283 154.5C25.0283 208.9 39.4283 242.1 12.2283 286.5C-11.0509 324.5 -3.07166 392.8 83.7283 416M83.7283 16C62.2283 37 21.0283 94.1 28.2283 154.5C35.4283 214.9 51.9283 249.1 20.7283 295.5C1.03759 324.784 10.9283 376.3 83.7283 397.5V16Z" stroke="#36D6AD" stroke-width="2"/>
</svg>
