<svg width="209" height="284" viewBox="0 0 209 284" fill="none" xmlns="http://www.w3.org/2000/svg">
<g clip-path="url(#clip0_9_137)">
<path d="M55.2022 295.718C31.4642 293.942 11.5209 276.794 5.08819 252.948C-2.93143 223.278 -1.52544 190.779 9.70544 162.237C24.7721 123.911 57.2157 93.4513 95.389 81.7827C127.198 72.0611 166.607 77.7349 185.4 106.162C197.658 124.706 198.709 148.641 198.798 171.152C198.893 192.672 198.456 214.533 192.515 235.175C186.574 255.818 174.367 275.336 156.038 285.317C139.548 294.301 120.137 294.714 101.528 294.929C85.2331 295.117 69.8184 296.811 55.2022 295.718Z" fill="#36D6AD"/>
<path d="M28.8945 119.333C37.2178 106.223 45.7698 99.3744 58.7241 91.2514C64.0648 87.9005 70.5112 83.6716 70.2143 77.2054C69.9583 71.617 64.464 67.7878 59.1916 66.5889C47.3396 63.9006 34.7266 70.1414 27.1745 79.9688C19.6225 89.7963 16.4897 102.613 15.8413 115.152C15.657 118.612 16.0734 122.845 19.1037 124.327C22.6733 126.073 26.4374 122.517 28.8945 119.32" fill="#36D6AD"/>
<path d="M190.089 255.886C190.464 255.201 190.791 254.491 191.068 253.761C192.733 249.45 194.392 248.251 196.061 243.319C196.28 242.544 196.613 241.806 197.05 241.129C198.685 238.841 202.302 238.878 204.64 240.446C209.152 243.469 209.472 250.571 206.227 254.929C202.763 259.575 196.463 261.382 190.73 261.146C190.442 261.137 190.164 261.038 189.934 260.863C189.705 260.689 189.534 260.448 189.447 260.173C188.946 258.502 189.393 257.146 190.089 255.886Z" fill="#36D6AD"/>
<path d="M202.35 157.441C200.876 167.258 195.348 176.535 186.993 181.96C184.502 183.572 181.554 185.174 180.793 188.047C180.305 189.867 180.844 191.804 181.339 193.608C189.201 222.747 187.632 253.631 176.858 281.823C176.138 283.681 173.34 289.273 173.34 289.273C173.34 289.273 130.136 298.154 117.032 298.294L117.612 294.044L118.26 289.262C119.253 281.898 120.431 273.443 121.731 264.364C129.409 210.591 141.135 134.797 141.889 132.395C144.179 125.065 149.178 146.11 149.38 153.789C150.774 151.948 152.538 150.419 154.558 149.301C156.578 148.183 158.81 147.501 161.109 147.299C159.348 139.121 159.693 133.004 162.092 125.273C162.13 125.145 162.205 125.03 162.308 124.944C162.411 124.858 162.537 124.804 162.67 124.789C162.803 124.774 162.938 124.799 163.057 124.86C163.176 124.921 163.275 125.016 163.341 125.133C168.019 133.232 168.572 140.31 171.357 149.987C171.824 151.603 171.664 153.745 173.241 154.322C174.203 154.664 175.264 154.243 176.199 153.83L192.921 146.452C195.749 145.208 198.579 143.956 201.412 142.694C202.811 147.48 203.131 152.516 202.35 157.441Z" fill="#FFF3DB"/>
<path d="M123.26 273.423C123.26 273.423 114.998 212.245 88.9426 191.487C88.6014 191.223 89.5125 191.487 89.5398 191.896C90.178 201.153 93.635 272.063 117.738 294.167L123.26 273.423Z" fill="#FFF3DB"/>
<path d="M202.35 157.441C197.675 154.848 194.593 149.926 192.904 146.448C195.732 145.205 198.562 143.953 201.395 142.691C202.8 147.476 203.126 152.514 202.35 157.441Z" fill="#1A2B60"/>
<path d="M158.215 167.914C158.949 169.751 158.962 171.473 158.246 171.76C157.529 172.047 156.355 170.786 155.625 168.952C154.895 167.118 154.878 165.393 155.594 165.106C156.311 164.819 157.485 166.076 158.215 167.914Z" fill="#1A2B60"/>
<path d="M167.856 163.145C168.586 164.979 168.6 166.701 167.883 166.988C167.166 167.275 165.992 166.018 165.262 164.18C164.532 162.342 164.515 160.621 165.231 160.337C165.948 160.054 167.122 161.307 167.856 163.145Z" fill="#1A2B60"/>
<path d="M184.318 181.024C184.318 181.024 174.869 192.159 166.572 181.96" stroke="#1A2B60" stroke-miterlimit="10" stroke-linecap="round"/>
<path d="M16.4419 293.074C16.4419 293.074 8.93419 214.991 35.2385 158.329L43.0534 178.899C47.0351 177.731 51.2683 177.731 55.25 178.899L63.372 158.329C63.372 158.329 97.7198 230.291 91.3212 301.699L16.4419 293.074Z" fill="white"/>
<path d="M41.9511 189.888C41.9511 192.197 41.2959 194.066 40.4871 194.066C39.6783 194.066 39.0231 192.197 39.0231 189.888C39.0231 187.579 39.6783 185.71 40.4871 185.71C41.2959 185.71 41.9511 187.569 41.9511 189.888Z" fill="#1A2B60"/>
<path d="M52.1139 189.888C52.1139 192.197 51.4586 194.066 50.6498 194.066C49.8411 194.066 49.1858 192.197 49.1858 189.888C49.1858 187.579 49.8411 185.71 50.6498 185.71C51.4586 185.71 52.1139 187.569 52.1139 189.888Z" fill="#1A2B60"/>
<path d="M43.1523 205.065L17.1961 187.449" stroke="#1A2B60" stroke-width="0.5" stroke-miterlimit="10" stroke-linecap="round"/>
<path d="M43.1523 205.065L11.9578 213.232" stroke="#1A2B60" stroke-width="0.5" stroke-miterlimit="10" stroke-linecap="round"/>
<path d="M43.1523 205.065L18.5099 201.659" stroke="#1A2B60" stroke-width="0.5" stroke-miterlimit="10" stroke-linecap="round"/>
<path d="M46.8516 205.44L80.3702 190.534" stroke="#1A2B60" stroke-width="0.5" stroke-miterlimit="10" stroke-linecap="round"/>
<path d="M46.8516 205.44L78.2578 216.286" stroke="#1A2B60" stroke-width="0.5" stroke-miterlimit="10" stroke-linecap="round"/>
<path d="M46.8516 205.44L74.4391 202.691" stroke="#1A2B60" stroke-width="0.5" stroke-miterlimit="10" stroke-linecap="round"/>
<path d="M64.6449 250.762C76.3774 253.153 89.1133 250.455 98.7709 243.353C103.549 239.835 107.644 235.315 110.316 229.98C112.933 224.672 114.305 218.836 114.329 212.916C114.352 206.997 113.027 201.15 110.452 195.821C109.152 193.181 107.511 190.724 105.572 188.511C103.371 186.001 100.743 183.907 98.0372 181.97C92.6419 178.107 86.3832 174.752 82.4348 169.359C80.5852 166.834 79.2508 164.177 78.7731 161.085C78.3764 158.207 79.0663 155.284 80.708 152.887C84.1889 147.634 90.5636 145.01 95.5494 141.202C98.1976 139.176 100.702 136.761 102.122 133.707C103.463 130.811 104.064 127.48 103.224 124.351C102.814 122.861 102.069 121.483 101.047 120.324C100.447 119.641 99.2521 119.706 98.6344 120.324C98.3227 120.648 98.1485 121.081 98.1485 121.531C98.1485 121.982 98.3227 122.414 98.6344 122.739C98.822 122.941 98.9868 123.163 99.1258 123.402C99.3143 123.702 99.482 124.014 99.6275 124.337C99.5319 124.122 99.6514 124.389 99.6616 124.419C99.723 124.583 99.781 124.761 99.8356 124.918C99.9549 125.314 100.051 125.717 100.122 126.124C100.221 126.674 100.122 125.823 100.153 126.38C100.153 126.5 100.174 126.619 100.18 126.722C100.199 127.084 100.199 127.446 100.18 127.808C100.169 128.455 100.08 129.099 99.9142 129.724C99.2316 132.566 97.614 134.869 95.3822 136.898C90.6933 141.185 84.4619 143.623 80.005 148.32C77.7732 150.674 75.9918 153.581 75.4663 156.826C74.9908 160.044 75.4418 163.331 76.7665 166.301C78.0833 169.304 79.9438 172.037 82.2539 174.363C84.6427 176.829 87.4854 178.858 90.3145 180.795C93.1435 182.732 95.9521 184.498 98.5866 186.602C99.8517 187.604 101.051 188.687 102.177 189.844C102.632 190.317 103.072 190.806 103.497 191.309C104.02 191.924 104.238 192.207 104.661 192.791C105.495 193.946 106.252 195.155 106.927 196.409C107.534 197.534 108.072 198.695 108.538 199.886C109.548 202.507 110.247 205.238 110.619 208.023C110.585 207.77 110.619 208.067 110.619 208.105C110.64 208.282 110.664 208.446 110.684 208.641C110.722 208.983 110.756 209.355 110.783 209.714C110.842 210.431 110.879 211.151 110.892 211.872C110.926 213.254 110.883 214.636 110.763 216.012C110.732 216.354 110.695 216.73 110.654 217.088C110.633 217.266 110.613 217.43 110.589 217.625C110.626 217.351 110.572 217.731 110.565 217.796C110.456 218.538 110.324 219.276 110.169 220.009C109.888 221.359 109.53 222.692 109.097 224.002C108.889 224.631 108.664 225.249 108.415 225.864C108.166 226.479 107.995 226.889 107.657 227.596C105.869 231.371 103.38 234.772 100.324 237.618C98.3055 239.536 96.0685 241.21 93.6588 242.605C91.2747 244.033 88.7425 245.198 86.1068 246.079C80.7662 247.905 75.099 248.574 69.4806 248.043C68.1652 247.926 66.8581 247.73 65.5663 247.455C65.1304 247.346 64.6691 247.409 64.2783 247.631C63.8874 247.853 63.5971 248.217 63.4676 248.648C63.2355 249.491 63.7508 250.564 64.6585 250.748L64.6449 250.762Z" fill="white"/>
<path d="M1.92471 271.162C1.92471 271.162 21.8202 315.117 93.3824 303.793" stroke="#36D6AD" stroke-width="2" stroke-miterlimit="10" stroke-linecap="round"/>
<path d="M130.72 70.9714C130.72 70.9714 190.809 68.5256 200.903 125.472" stroke="#36D6AD" stroke-width="2" stroke-miterlimit="10" stroke-linecap="round"/>
<path d="M85.257 33.9947C81.5935 33.059 78.1978 31.2826 75.3388 28.8062C72.4797 26.3298 70.2357 23.2213 68.7844 19.7266C67.8698 17.4756 67.3033 14.9786 67.8732 12.6182C68.4431 10.2579 70.3986 8.11613 72.8181 7.94533C74.678 7.81212 76.4696 8.83685 77.7118 10.2271C78.9539 11.6174 79.7593 13.3458 80.5135 15.0435C79.285 11.9692 78.0394 8.6729 78.6536 5.41417C79.2679 2.15543 82.5747 -0.819787 85.728 0.204972C88.4581 1.08968 89.6081 4.25277 90.2189 7.0367C92.188 16.0648 92.1266 25.9777 87.5366 33.9913" fill="#FC7071"/>
<path d="M113.001 37.6428C111.202 35.7037 109.878 33.3718 109.136 30.8318C108.393 28.2918 108.251 25.6135 108.722 23.0092C109.036 21.3389 109.647 19.6583 110.875 18.4866C112.104 17.315 114.066 16.7992 115.551 17.6156C116.694 18.2441 117.359 19.525 117.561 20.8128C117.762 22.1006 117.561 23.4157 117.387 24.7035C117.83 22.4285 118.342 20.0238 119.939 18.3397C121.536 16.6557 124.601 16.1673 126.082 17.964C127.345 19.5148 126.829 21.8137 126.13 23.689C123.867 29.7419 120.083 35.5455 114.349 38.5139" fill="#FCF0E3"/>
<path d="M102.631 63.7366C100.953 64.6304 99.0896 65.1207 97.1894 65.1687C95.2892 65.2167 93.4039 64.8212 91.683 64.0133C90.5841 63.4873 89.5262 62.7528 88.9529 61.6803C88.3796 60.6077 88.3659 59.1525 89.2088 58.2644C89.5529 57.9447 89.9642 57.7064 90.4124 57.5669C90.8607 57.4274 91.3345 57.3902 91.799 57.4582C92.7261 57.6008 93.626 57.8841 94.4676 58.2986C92.9729 57.5676 91.3963 56.7683 90.5227 55.3473C89.649 53.9263 89.8709 51.7025 91.3895 51.0159C92.6999 50.4216 94.2015 51.2038 95.372 52.0407C99.1566 54.729 102.491 58.4352 103.494 62.9715" fill="#36D6AD"/>
</g>
<defs>
<clipPath id="clip0_9_137">
<rect width="208.387" height="306" fill="white"/>
</clipPath>
</defs>
</svg>
